<svg width="21" height="32" viewBox="0 0 21 32" fill="none" xmlns="http://www.w3.org/2000/svg">
<path d="M5.08846 31.794C7.88996 31.794 10.1636 29.5204 10.1636 26.7189V21.6436H5.08846C2.28697 21.6436 0.0131836 23.9174 0.0131836 26.7189C0.0131836 29.5204 2.28697 31.794 5.08846 31.794Z" fill="white"/>
<path d="M0.0131836 15.897C0.0131836 13.0955 2.28697 10.8219 5.08846 10.8219H10.1636V20.9722H5.08846C2.28697 20.9722 0.0131836 18.6985 0.0131836 15.897Z" fill="white"/>
<path d="M0.0136719 5.07513C0.0136719 2.27363 2.28745 0 5.08895 0H10.1641V10.1504H5.08895C2.28745 10.1504 0.0136719 7.87663 0.0136719 5.07513Z" fill="white"/>
<path d="M10.835 0H15.9101C18.7116 0 20.9854 2.27363 20.9854 5.07513C20.9854 7.87663 18.7116 10.1504 15.9101 10.1504H10.835V0Z" fill="white"/>
<path d="M20.9854 15.897C20.9854 18.6985 18.7116 20.9722 15.9101 20.9722C13.1086 20.9722 10.835 18.6985 10.835 15.897C10.835 13.0955 13.1086 10.8219 15.9101 10.8219C18.7116 10.8219 20.9854 13.0955 20.9854 15.897Z" fill="white"/>
</svg>
